<svg width="235" height="71" viewBox="0 0 235 71" fill="none" xmlns="http://www.w3.org/2000/svg">
<path d="M103.636 11.9402C98.321 48.6004 89.8845 56.7449 74.7716 47.106C59.6586 37.467 54.6882 28.7043 50.6499 32.5015C46.6116 36.2986 60.2397 59.8627 80.8846 68.2683C100.065 76.0775 118.768 61.1322 123.664 51.6683C144.013 12.3325 138.871 6.88148 123.664 2.5786C108.211 -1.79421 105.576 -1.44191 103.636 11.9402Z" fill="white"/>
<path d="M28.1593 20.1584L25.1032 64.7936C25.0496 65.5979 24.7547 66 24.2185 66H19.7952C16.7927 66 14.6481 65.4102 13.3613 64.2307C12.0745 63.0511 11.4312 61.3622 11.4312 59.164C11.4312 58.3597 11.458 57.1534 11.5116 55.5449C11.6188 53.9364 11.7528 52.0599 11.9137 49.9152C12.0745 47.717 12.2354 45.3579 12.3962 42.8379C12.6107 40.2644 12.8252 37.6908 13.0396 35.1172C13.2541 32.4901 13.4417 29.8897 13.6026 27.3161C13.8171 24.7426 14.0047 22.3567 14.1656 20.1584H1.29775C0.707973 20.1584 0.413086 19.7831 0.413086 19.0325L0.654357 14.5287C0.707973 13.8317 0.815205 13.1615 0.976053 12.5181C1.19052 11.8211 1.51221 11.2046 1.94114 10.6684C2.37007 10.1322 2.90623 9.70331 3.54962 9.38162C4.24662 9.05992 5.07767 8.89907 6.04276 8.89907H41.9922C42.3139 8.89907 42.6088 8.9795 42.8769 9.14035C43.145 9.30119 43.279 9.59608 43.279 10.025L42.9573 14.77C42.8501 16.3785 42.3943 17.6921 41.5901 18.7108C40.8395 19.6759 39.2578 20.1584 36.8451 20.1584H28.1593Z" fill="white"/>
<path d="M169.437 8.09484C174.477 8.09484 178.203 9.19396 180.616 11.3922C183.082 13.5905 184.315 16.4589 184.315 19.9976C184.315 23.0001 183.484 25.3055 181.822 26.914C180.16 28.4689 177.774 29.2463 174.665 29.2463C173.699 29.2463 173.083 29.1659 172.815 29.005C172.547 28.7906 172.413 28.3885 172.413 27.7987C172.413 27.2625 172.359 26.5655 172.252 25.7077C172.198 24.8498 172.011 24.0188 171.689 23.2145C171.367 22.4103 170.858 21.7401 170.161 21.2039C169.464 20.6141 168.499 20.3193 167.266 20.3193C165.55 20.3193 164.022 20.8554 162.681 21.9277C161.341 22.9464 160.671 24.2868 160.671 25.9489C160.671 27.3966 161.207 28.5761 162.279 29.4876C163.405 30.3991 164.799 31.2569 166.461 32.0611C168.123 32.8118 169.92 33.5892 171.85 34.3934C173.833 35.1977 175.656 36.27 177.319 37.6104C178.981 38.8972 180.348 40.5325 181.42 42.5162C182.546 44.4464 183.109 46.9127 183.109 49.9152C183.109 52.2743 182.707 54.4994 181.903 56.5904C181.152 58.6278 179.999 60.424 178.444 61.9788C176.943 63.4801 175.013 64.6596 172.654 65.5175C170.348 66.3753 167.641 66.8042 164.531 66.8042C161.85 66.8042 159.357 66.5094 157.052 65.9196C154.8 65.3298 152.816 64.606 151.1 63.7481C149.438 62.8367 148.125 61.8716 147.16 60.8529C146.194 59.7806 145.712 58.8155 145.712 57.9576C145.712 54.419 145.9 51.8722 146.275 50.3174C146.704 48.7625 147.454 47.9851 148.527 47.9851C149.277 47.9851 150.055 48.3068 150.859 48.9501C151.717 49.5935 152.682 50.3174 153.754 51.1216C154.827 51.9258 156.06 52.6496 157.454 53.293C158.901 53.9364 160.564 54.2581 162.44 54.2581C163.191 54.2581 163.915 54.2045 164.612 54.0973C165.362 53.9364 166.006 53.6952 166.542 53.3735C167.132 53.0518 167.587 52.6228 167.909 52.0867C168.284 51.5505 168.472 50.9071 168.472 50.1565C168.472 48.8161 167.963 47.7438 166.944 46.9396C165.925 46.1353 164.638 45.4115 163.084 44.7681C161.529 44.0711 159.84 43.3741 158.017 42.6771C156.247 41.9265 154.585 40.9346 153.031 39.7014C151.476 38.4146 150.189 36.7793 149.17 34.7956C148.151 32.8118 147.642 30.265 147.642 27.1553C147.642 23.6703 148.286 20.7214 149.572 18.3087C150.913 15.8959 152.602 13.939 154.639 12.4377C156.73 10.8829 159.062 9.78374 161.636 9.14035C164.263 8.44334 166.863 8.09484 169.437 8.09484Z" fill="white"/>
<path d="M234.823 60.7725C234.823 61.2014 234.555 61.7644 234.019 62.4614C233.536 63.1047 232.839 63.7481 231.928 64.3915C231.07 65.0349 230.051 65.5979 228.871 66.0804C227.746 66.563 226.539 66.8042 225.252 66.8042C223.269 66.8042 221.526 66.1877 220.025 64.9545C218.524 63.6677 217.156 61.9252 215.923 59.7269C214.744 57.5287 213.645 54.9283 212.626 51.9258C211.607 48.8697 210.562 45.5723 209.489 42.0337L206.433 44.0443L204.905 64.7936C204.852 65.2226 204.744 65.5443 204.583 65.7587C204.423 65.9196 204.101 66 203.618 66H199.195C196.139 66 193.968 65.4102 192.681 64.2307C191.448 62.9975 190.831 61.2014 190.831 58.8423C190.831 58.0917 190.858 56.9657 190.911 55.4645C191.019 53.9096 191.153 52.1135 191.314 50.0761C191.474 47.9851 191.635 45.7064 191.796 43.2401C192.011 40.7737 192.225 38.2538 192.439 35.6802C192.815 30.5331 193.11 26.4583 193.324 23.4558C193.592 20.4533 193.78 18.0942 193.887 16.3785C193.994 14.6092 194.075 13.3224 194.128 12.5181C194.182 11.6603 194.209 10.8561 194.209 10.1054C194.209 9.30119 194.638 8.89907 195.496 8.89907H199.919C201.635 8.89907 203.002 9.08673 204.021 9.46204C205.093 9.78374 205.924 10.2663 206.514 10.9097C207.103 11.5531 207.506 12.3573 207.72 13.3224C207.934 14.2339 208.042 15.3062 208.042 16.5393C208.042 17.7725 207.961 19.7831 207.8 22.5711C207.693 25.3055 207.506 28.3885 207.237 31.8199C209.06 29.568 211.232 26.78 213.752 23.4558C216.325 20.1316 219.435 16.03 223.081 11.1509C223.242 10.9365 223.456 10.6684 223.724 10.3467C224.046 9.97139 224.368 9.62289 224.689 9.30119C225.065 8.9795 225.44 8.71142 225.815 8.49695C226.244 8.22888 226.646 8.09484 227.022 8.09484C227.719 8.09484 228.523 8.47015 229.434 9.22077C230.346 9.91778 231.204 10.8024 232.008 11.8748C232.812 12.8935 233.482 13.9658 234.019 15.0917C234.608 16.164 234.903 17.0755 234.903 17.8261C234.903 19.381 233.509 21.7133 230.721 24.823C227.933 27.8791 223.939 31.4178 218.738 35.4389C219.65 36.9938 220.695 38.6827 221.875 40.5056C223.054 42.275 224.234 44.0979 225.413 45.9745C226.593 47.7974 227.746 49.5935 228.871 51.3629C229.997 53.0786 230.989 54.6334 231.847 56.0275C232.759 57.3678 233.482 58.467 234.019 59.3248C234.555 60.1827 234.823 60.6652 234.823 60.7725Z" fill="white"/>
</svg>
